<svg width="440" height="420" xmlns="http://www.w3.org/2000/svg">
	<mask id="maskForHair">
		<rect x="0" y="0" width="440" height="420" fill="black"/>
		<ellipse cx="210" cy="210" rx="200" ry="200" fill="white"/>
	</mask>
	<mask id="maskForBorder">
		<rect x="0" y="0" width="440" height="420" fill="white"/>
		<ellipse cx="210" cy="210" rx="200" ry="200" fill="black"/>
		<path transform="translate(-185 -460)"  stroke-width="7.5" d="m391.94798,588.22222c7.67313,-36.00306 10.69129,-86.19644 67.20163,-101.11809c56.51034,-14.92165 109.19116,-5.99937 145.97079,21.96667c36.77963,27.96604 2.97637,5.08775 -28.43669,-2.71458c-31.41306,-7.80233 -67.05493,-3.82368 -93.01562,1.214c-25.96069,5.03768 -61.16564,20.49054 -65.71665,34.80221c-4.55101,14.31167 -27.92174,54.85055 -26.00345,45.84978z" stroke="black" fill="black"/>
	</mask>
	<g>
		<title>Logo</title>
		
		<g mask="url(#maskForHair)">
			<ellipse transform="rotate(-80, 140.625, 336.25)" ry="153.75" rx="208.875" cy="336.25" cx="140.625" stroke-width="0" stroke="#000" fill="#ffff3f"/>
			<ellipse transform="rotate(80, 269.375, 336.25)" ry="153.75" rx="208.875" cy="336.25" cx="269.375" stroke-width="0" stroke="#000" fill="#ffff3f"/>
		</g>
		
		<ellipse mask="url(#maskForBorder)" cx="210" cy="210" rx="210" ry="210" fill="#6060FF"/>
		
		<path transform="translate(-185 -460)" d="m391.94798,588.22222c7.67313,-36.00306 10.69129,-86.19644 67.20163,-101.11809c56.51034,-14.92165 109.19116,-5.99937 145.97079,21.96667c36.77963,27.96604 2.97637,5.08775 -28.43669,-2.71458c-31.41306,-7.80233 -67.05493,-3.82368 -93.01562,1.214c-25.96069,5.03768 -61.16564,20.49054 -65.71665,34.80221c-4.55101,14.31167 -27.92174,54.85055 -26.00345,45.84978z" stroke-width="0" fill="#ffff3f"/>
	</g>
</svg>